<svg width="375" height="584" viewBox="0 0 375 584" fill="none" xmlns="http://www.w3.org/2000/svg">
<g clip-path="url(#clip0_86_633)">
<path d="M149.535 405.133C154.034 399.718 159.433 383.924 160.333 369.934C161.232 355.945 158.083 343.761 172.03 325.71" stroke="white" stroke-width="3" stroke-miterlimit="10"/>
<path d="M167.36 332.556C166.181 323.905 160.467 310.75 162.582 290.962C163.932 278.326 165.974 277.491 163.032 265.691C160.332 254.86 163.482 254.102 165.281 249.896C167.081 245.69 160.679 236.047 164.831 230.492C165.627 229.434 166.643 228.563 167.808 227.939C168.974 227.316 170.261 226.955 171.58 226.881" stroke="white" stroke-width="3" stroke-miterlimit="10"/>
<path d="M173.38 235.004C172.93 231.845 168.431 218.307 179.678 217.856" stroke="white" stroke-width="3" stroke-miterlimit="10"/>
<path d="M183.278 232.297C181.928 228.235 178.005 217.021 182.378 211.538C185.977 207.025 190.476 209.733 190.476 209.733" stroke="white" stroke-width="3" stroke-miterlimit="10"/>
<path d="M193.202 227.603C193.175 221.917 188.056 211.701 191.826 204.769C194.525 199.805 200.824 201.61 202.623 202.964" stroke="white" stroke-width="3" stroke-miterlimit="10"/>
<path d="M203.073 227.603C204.423 225.076 204.873 220.564 203.523 216.051C202.174 211.538 199.474 199.354 211.172 199.354C222.869 199.354 225.119 212.892 224.219 217.405C223.319 221.917 221.07 225.076 222.419 231.845C223.769 238.614 227.818 254.409 222.419 266.142C217.02 277.875 213.538 281.612 213.705 297.117C213.871 312.623 212.971 329.771 209.822 338.345C206.673 346.919 205.323 349.627 205.323 349.627" stroke="white" stroke-width="3" stroke-miterlimit="10"/>
<path d="M208.472 341.956C210.272 351.884 209.822 359.555 206.673 366.324C202.673 374.898 197.675 376.703 197.675 376.703" stroke="white" stroke-width="3" stroke-miterlimit="10"/>
<path d="M197.675 362.1C197.675 365.873 198.124 376.252 198.574 390.242" stroke="white" stroke-width="3" stroke-miterlimit="10"/>
</g>
<rect x="66.5" y="267.5" width="242" height="69" fill="#232323" fill-opacity="0.6"/>
<path d="M91.0746 310H94.9386V303.76H97.1226C101.035 303.76 103.555 302.032 103.555 298.408V298.312C103.555 294.688 101.179 292.84 97.0026 292.84H91.0746V310ZM94.9386 301.048V295.792H96.9066C98.7546 295.792 99.8106 296.512 99.8106 298.336V298.432C99.8106 300.136 98.8026 301.048 96.9066 301.048H94.9386ZM111.29 307.624C109.322 307.624 108.218 306.184 108.218 303.784V303.592C108.218 301.192 109.37 299.8 111.29 299.8C113.234 299.8 114.362 301.24 114.362 303.64V303.808C114.362 306.184 113.234 307.624 111.29 307.624ZM111.266 310.264C115.034 310.264 117.89 307.744 117.89 303.784V303.592C117.89 299.68 115.058 297.16 111.29 297.16C107.522 297.16 104.666 299.728 104.666 303.664V303.856C104.666 307.768 107.522 310.264 111.266 310.264ZM120.32 310H123.776V297.448H120.32V310ZM122.024 295.744C123.152 295.744 124.016 294.928 124.016 293.848C124.016 292.768 123.152 291.952 122.024 291.952C120.92 291.952 120.056 292.768 120.056 293.848C120.056 294.928 120.92 295.744 122.024 295.744ZM126.974 310H130.454V302.752C130.454 300.904 131.582 299.992 133.07 299.992C134.606 299.992 135.278 300.808 135.278 302.512V310H138.758V302.008C138.758 298.648 137.006 297.16 134.534 297.16C132.446 297.16 131.078 298.192 130.454 299.44V297.448H126.974V310ZM146.323 310.24C147.259 310.24 147.955 310.072 148.435 309.904V307.216C148.027 307.384 147.643 307.456 147.115 307.456C146.227 307.456 145.723 306.976 145.723 305.968V299.92H148.363V297.448H145.723V294.736H142.267V297.448H140.659V299.92H142.267V306.28C142.267 308.896 143.683 310.24 146.323 310.24ZM159.49 310.264C161.458 310.264 162.562 309.496 163.282 308.488V310H166.666V301.816C166.666 298.408 164.482 297.16 161.41 297.16C158.338 297.16 155.986 298.48 155.77 301.456H159.058C159.202 300.376 159.826 299.68 161.194 299.68C162.778 299.68 163.234 300.496 163.234 301.984V302.488H161.818C157.978 302.488 155.29 303.592 155.29 306.52C155.29 309.16 157.21 310.264 159.49 310.264ZM160.522 307.84C159.25 307.84 158.698 307.24 158.698 306.328C158.698 304.984 159.874 304.552 161.89 304.552H163.234V305.608C163.234 307 162.058 307.84 160.522 307.84ZM174.237 310.24C175.173 310.24 175.869 310.072 176.349 309.904V307.216C175.941 307.384 175.557 307.456 175.029 307.456C174.141 307.456 173.637 306.976 173.637 305.968V299.92H176.277V297.448H173.637V294.736H170.181V297.448H168.573V299.92H170.181V306.28C170.181 308.896 171.597 310.24 174.237 310.24ZM185.604 314.272H188.964L195.756 297.448H192.42L189.612 304.984L186.564 297.448H182.82L187.812 308.728L185.604 314.272ZM202.884 307.624C200.916 307.624 199.812 306.184 199.812 303.784V303.592C199.812 301.192 200.964 299.8 202.884 299.8C204.828 299.8 205.956 301.24 205.956 303.64V303.808C205.956 306.184 204.828 307.624 202.884 307.624ZM202.86 310.264C206.628 310.264 209.484 307.744 209.484 303.784V303.592C209.484 299.68 206.652 297.16 202.884 297.16C199.116 297.16 196.26 299.728 196.26 303.664V303.856C196.26 307.768 199.116 310.264 202.86 310.264ZM215.993 310.264C218.057 310.264 219.329 309.304 219.977 308.032V310H223.433V297.448H219.977V304.816C219.977 306.664 218.825 307.576 217.361 307.576C215.873 307.576 215.177 306.76 215.177 305.056V297.448H211.721V305.536C211.721 308.824 213.545 310.264 215.993 310.264ZM226.513 310H229.993V303.712C229.993 301.312 231.481 300.472 234.049 300.496V297.256C232.009 297.28 230.785 298.168 229.993 299.848V297.448H226.513V310ZM242.229 310H245.685V299.92H248.421V297.448H245.685V295.912C245.685 294.952 246.141 294.256 247.245 294.256C247.749 294.256 248.181 294.352 248.517 294.472V291.856C247.965 291.688 247.461 291.616 246.717 291.616C243.933 291.616 242.229 293.08 242.229 296.008V297.448H240.573V299.92H242.229V310ZM255.875 310.264C259.307 310.264 261.467 308.752 261.875 306.04H258.587C258.371 307.096 257.579 307.792 255.971 307.792C254.075 307.792 252.947 306.592 252.851 304.504H261.899V303.544C261.899 299.056 259.019 297.16 255.779 297.16C252.131 297.16 249.323 299.728 249.323 303.688V303.88C249.323 307.888 252.083 310.264 255.875 310.264ZM252.899 302.368C253.163 300.592 254.219 299.56 255.779 299.56C257.435 299.56 258.395 300.472 258.515 302.368H252.899ZM269.961 310.264C273.393 310.264 275.553 308.752 275.961 306.04H272.673C272.457 307.096 271.665 307.792 270.057 307.792C268.161 307.792 267.033 306.592 266.937 304.504H275.985V303.544C275.985 299.056 273.105 297.16 269.865 297.16C266.217 297.16 263.409 299.728 263.409 303.688V303.88C263.409 307.888 266.169 310.264 269.961 310.264ZM266.985 302.368C267.249 300.592 268.305 299.56 269.865 299.56C271.521 299.56 272.481 300.472 272.601 302.368H266.985ZM282.847 310.24C283.783 310.24 284.479 310.072 284.959 309.904V307.216C284.551 307.384 284.167 307.456 283.639 307.456C282.751 307.456 282.247 306.976 282.247 305.968V299.92H284.887V297.448H282.247V294.736H278.791V297.448H277.183V299.92H278.791V306.28C278.791 308.896 280.207 310.24 282.847 310.24Z" fill="white"/>
<rect x="66.5" y="267.5" width="242" height="69" stroke="white" stroke-width="3"/>
<defs>
<clipPath id="clip0_86_633">
<rect width="78" height="208" fill="white" transform="translate(148.5 198)"/>
</clipPath>
</defs>
</svg>
